<?xml version="1.0" encoding="UTF-8" standalone="no"?><svg xmlns="http://www.w3.org/2000/svg" xmlns:xlink="http://www.w3.org/1999/xlink" contentStyleType="text/css" height="413px" preserveAspectRatio="none" style="width:1014px;height:413px;background:#FFFFFF;" version="1.1" viewBox="0 0 1014 413" width="1014px" zoomAndPan="magnify"><defs/><g><line style="stroke:#181818;stroke-width:0.5;stroke-dasharray:5.0,5.0;" x1="23" x2="23" y1="81.4883" y2="332.6621"/><line style="stroke:#181818;stroke-width:0.5;stroke-dasharray:5.0,5.0;" x1="125" x2="125" y1="81.4883" y2="332.6621"/><line style="stroke:#181818;stroke-width:0.5;stroke-dasharray:5.0,5.0;" x1="413" x2="413" y1="81.4883" y2="332.6621"/><line style="stroke:#181818;stroke-width:0.5;stroke-dasharray:5.0,5.0;" x1="728" x2="728" y1="81.4883" y2="332.6621"/><text fill="#000000" font-family="sans-serif" font-size="14" lengthAdjust="spacing" textLength="31" x="5" y="78.5352">User</text><ellipse cx="23.5" cy="13.5" fill="#E2E2F0" rx="8" ry="8" style="stroke:#181818;stroke-width:0.5;"/><path d="M23.5,21.5 L23.5,48.5 M10.5,29.5 L36.5,29.5 M23.5,48.5 L10.5,63.5 M23.5,48.5 L36.5,63.5 " fill="none" style="stroke:#181818;stroke-width:0.5;"/><text fill="#000000" font-family="sans-serif" font-size="14" lengthAdjust="spacing" textLength="31" x="5" y="345.1973">User</text><ellipse cx="23.5" cy="356.6504" fill="#E2E2F0" rx="8" ry="8" style="stroke:#181818;stroke-width:0.5;"/><path d="M23.5,364.6504 L23.5,391.6504 M10.5,372.6504 L36.5,372.6504 M23.5,391.6504 L10.5,406.6504 M23.5,391.6504 L36.5,406.6504 " fill="none" style="stroke:#181818;stroke-width:0.5;"/><rect fill="#E2E2F0" height="30.4883" rx="2.5" ry="2.5" style="stroke:#181818;stroke-width:0.5;" width="63" x="94" y="50"/><text fill="#000000" font-family="sans-serif" font-size="14" lengthAdjust="spacing" textLength="49" x="101" y="70.5352">Firefox</text><rect fill="#E2E2F0" height="30.4883" rx="2.5" ry="2.5" style="stroke:#181818;stroke-width:0.5;" width="63" x="94" y="331.6621"/><text fill="#000000" font-family="sans-serif" font-size="14" lengthAdjust="spacing" textLength="49" x="101" y="352.1973">Firefox</text><rect fill="#E2E2F0" height="30.4883" rx="2.5" ry="2.5" style="stroke:#181818;stroke-width:0.5;" width="97" x="365" y="50"/><text fill="#000000" font-family="sans-serif" font-size="14" lengthAdjust="spacing" textLength="83" x="372" y="70.5352">HTTP Server</text><rect fill="#E2E2F0" height="30.4883" rx="2.5" ry="2.5" style="stroke:#181818;stroke-width:0.5;" width="97" x="365" y="331.6621"/><text fill="#000000" font-family="sans-serif" font-size="14" lengthAdjust="spacing" textLength="83" x="372" y="352.1973">HTTP Server</text><rect fill="#E2E2F0" height="30.4883" rx="2.5" ry="2.5" style="stroke:#181818;stroke-width:0.5;" width="57" x="700" y="50"/><text fill="#000000" font-family="sans-serif" font-size="14" lengthAdjust="spacing" textLength="43" x="707" y="70.5352">Emacs</text><rect fill="#E2E2F0" height="30.4883" rx="2.5" ry="2.5" style="stroke:#181818;stroke-width:0.5;" width="57" x="700" y="331.6621"/><text fill="#000000" font-family="sans-serif" font-size="14" lengthAdjust="spacing" textLength="43" x="707" y="352.1973">Emacs</text><polygon fill="#181818" points="113.5,108.7988,123.5,112.7988,113.5,116.7988,117.5,112.7988" style="stroke:#181818;stroke-width:1.0;"/><line style="stroke:#181818;stroke-width:1.0;" x1="23.5" x2="119.5" y1="112.7988" y2="112.7988"/><text fill="#000000" font-family="sans-serif" font-size="13" lengthAdjust="spacing" textLength="78" x="30.5" y="108.0566">Access page</text><polygon fill="#181818" points="401.5,138.1094,411.5,142.1094,401.5,146.1094,405.5,142.1094" style="stroke:#181818;stroke-width:1.0;"/><line style="stroke:#181818;stroke-width:1.0;" x1="125.5" x2="407.5" y1="142.1094" y2="142.1094"/><text fill="#000000" font-family="sans-serif" font-size="13" lengthAdjust="spacing" textLength="264" x="132.5" y="137.3672">POST /v1/echo, URL and Title Information</text><line style="stroke:#181818;stroke-width:1.0;" x1="413.5" x2="455.5" y1="171.4199" y2="171.4199"/><line style="stroke:#181818;stroke-width:1.0;" x1="455.5" x2="455.5" y1="171.4199" y2="184.4199"/><line style="stroke:#181818;stroke-width:1.0;" x1="414.5" x2="455.5" y1="184.4199" y2="184.4199"/><polygon fill="#181818" points="424.5,180.4199,414.5,184.4199,424.5,188.4199,420.5,184.4199" style="stroke:#181818;stroke-width:1.0;"/><text fill="#000000" font-family="sans-serif" font-size="13" lengthAdjust="spacing" textLength="106" x="420.5" y="166.6777">Save Information</text><polygon fill="#181818" points="716.5,209.7305,726.5,213.7305,716.5,217.7305,720.5,213.7305" style="stroke:#181818;stroke-width:1.0;"/><line style="stroke:#181818;stroke-width:1.0;" x1="23.5" x2="722.5" y1="213.7305" y2="213.7305"/><text fill="#000000" font-family="sans-serif" font-size="13" lengthAdjust="spacing" textLength="192" x="30.5" y="208.9883">"Execute my/insert-jsno-link"</text><polygon fill="#181818" points="424.5,239.041,414.5,243.041,424.5,247.041,420.5,243.041" style="stroke:#181818;stroke-width:1.0;"/><line style="stroke:#181818;stroke-width:1.0;" x1="418.5" x2="727.5" y1="243.041" y2="243.041"/><text fill="#000000" font-family="sans-serif" font-size="13" lengthAdjust="spacing" textLength="291" x="430.5" y="238.2988">GET /v1/show Retrieve Latest Tab Information</text><polygon fill="#181818" points="716.5,268.3516,726.5,272.3516,716.5,276.3516,720.5,272.3516" style="stroke:#181818;stroke-width:1.0;"/><line style="stroke:#181818;stroke-width:1.0;" x1="413.5" x2="722.5" y1="272.3516" y2="272.3516"/><text fill="#000000" font-family="sans-serif" font-size="13" lengthAdjust="spacing" textLength="73" x="420.5" y="267.6094">url and title</text><line style="stroke:#181818;stroke-width:1.0;" x1="728.5" x2="770.5" y1="301.6621" y2="301.6621"/><line style="stroke:#181818;stroke-width:1.0;" x1="770.5" x2="770.5" y1="301.6621" y2="314.6621"/><line style="stroke:#181818;stroke-width:1.0;" x1="729.5" x2="770.5" y1="314.6621" y2="314.6621"/><polygon fill="#181818" points="739.5,310.6621,729.5,314.6621,739.5,318.6621,735.5,314.6621" style="stroke:#181818;stroke-width:1.0;"/><text fill="#000000" font-family="sans-serif" font-size="13" lengthAdjust="spacing" textLength="272" x="735.5" y="296.9199">Assemble link and insert at cursor position</text><!--SRC=[RP3FRi8m38VlUGghPwfgrnucSIXi4j8G3GzWCZEojGcotSBUVaqBcYguv13_-RwVqMbas0knCUc5_1LMdkaOhoKidICHEECNcTjdgcTlrcwX9kw9inAs7xM5edyfo9tY0lQx3M3u1Ekr8NWFnyWjge_1cDdWaqqrzlE9kr7LefCIikfAhbE2zhVmOQXf_YqXveqFFvaPcnwthgl9Jaxn0ZjIzZHGDgWa2XOFC-23uKJkk1apQShq3xffBKMeFGnXayVODya1AhYEPJZmEOfFW3y0]--></g></svg>